# AST/ASF file generated using VICON BodyLanguage
# -----------------------------------------------
:version 1.10
:name VICON
:units
  mass 1.0
  length 0.45
  angle deg
:documentation
   .ast/.asf automatically generated from VICON data using
   VICON BodyBuilder and BodyLanguage model FoxedUp or BRILLIANT.MOD
:root
   order TX TY TZ RX RY RZ
   axis XYZ
   position 0 0 0  
   orientation 0 0 0 
:bonedata
  begin
     id 1 
     name lhipjoint
     direction 0.662698 -0.695252 0.27831 
     length 2.53073 
     axis 0 0 0  XYZ
  end
  begin
     id 2 
     name lfemur
     direction 0.34202 -0.939693 0  
     length 7.16147  
     axis 0 0 20  XYZ
    dof rx ry rz
    limits (-160.0 20.0)
           (-70.0 70.0)
           (-60.0 70.0)
  end
  begin
     id 3 
     name ltibia
     direction 0.34202 -0.939693 0   
     length 7.63967   
     axis 0 0 20   XYZ
    dof rx
    limits (-10.0 170.0)
  end
  begin
     id 4 
     name lfoot
     direction 0.0938457 -0.257721 0.961651   
     length 1.89793   
     axis -90 7.62852e-016 20   XYZ
    dof rx rz
    limits (-45.0 90.0)
           (-70.0 20.0)
  end
  begin
     id 5 
     name ltoes
     direction -0.00116841 -0.0030592 0.999995   
     length 0.955649   
     axis -90 7.62852e-016 20   XYZ
    dof rx
    limits (-90.0 20.0)
  end
  begin
     id 6 
     name rhipjoint
     direction -0.649445 -0.705948 0.282592   
     length 2.49238  
     axis 0 0 0  XYZ 
  end
  begin
     id 7 
     name rfemur
     direction -0.34202 -0.939693 0   
     length 6.90728   
     axis 0 0 -20   XYZ
    dof rx ry rz
    limits (-160.0 20.0)
           (-70.0 70.0)
           (-70.0 60.0)
  end
  begin
     id 8 
     name rtibia
     direction -0.34202 -0.939693 0   
     length 7.72868   
     axis 0 0 -20   XYZ
    dof rx
    limits (-10.0 170.0)
 end
 begin
     id 9 
     name rfoot
     direction -0.0920068 -0.252865 0.963117   
     length 1.97476  
     axis -90 -7.62852e-016 -20   XYZ
    dof rx rz
    limits (-45.0 90.0)
           (-20.0 70.0)
  end
  begin
     id 10 
     name rtoes
     direction 0.000391322 0.00230649 0.999997   
     length 0.992641   
     axis -90 -7.62852e-016 -20   XYZ
    dof rx
    limits (-90.0 20.0)
  end
  begin
     id 11 
     name lowerback
     direction -0.00875327 0.998321 -0.0572635   
     length 2.20024   
     axis 0 0 0   XYZ
    dof rx ry rz
    limits (-20.0 45.0)
           (-30.0 30.0)
           (-30.0 30.0)
  end
  begin
     id 12 
     name upperback
     direction 0.00753931 0.999972 -0.000360425   
     length 2.20538   
     axis 0 0 0   XYZ
    dof rx ry rz
    limits (-20.0 45.0)
           (-30.0 30.0)
           (-30.0 30.0)
  end
  begin
     id 13 
     name thorax
     direction 0.0117767 0.999601 0.0256663   
     length 2.21508   
     axis 0 0 0   XYZ
    dof rx ry rz
    limits (-20.0 45.0)
           (-30.0 30.0)
           (-30.0 30.0)
  end
  begin
     id 14 
     name lowerneck
     direction 0.060228 0.994909 0.0807986   
     length 1.7607   
     axis 0 0 0   XYZ
    dof rx ry rz
    limits (-20.0 45.0)
           (-30.0 30.0)
           (-30.0 30.0)
  end
  begin
     id 15 
     name upperneck
     direction -0.0563647 0.959594 -0.275685   
     length 1.75612   
     axis 0 0 0   XYZ
    dof rx ry rz
    limits (-20.0 45.0)
           (-30.0 30.0)
           (-30.0 30.0)
  end
  begin
     id 16
     name head
     direction -0.0161544 0.99458 -0.102714  
     length 1.79288  
     axis 0 0 0   XYZ
    dof rx ry rz
    limits (-20.0 45.0)
           (-30.0 30.0)
           (-30.0 30.0)
  end
  begin
     id 17 
     name lclavicle
     direction 0.93913 0.332189 -0.087669  
     length 3.52087  
     axis 0 0 0   XYZ
    dof ry rz
    limits (-20.0 10.0)
           (0.0 20.0)
  end
  begin
     id 18 
     name lhumerus
     direction 1 -4.48974e-011 -2.70836e-027   
     length 5.35289   
     axis -180 -30 -90   XYZ
    dof rx ry rz
    limits (-60.0 90.0)
           (-90.0 90.0)
           (-90.0 90.0)
  end
  begin
     id 19
     name lradius
     direction 1 -4.48961e-011 -9.76021e-027   
     length 3.27727   
     axis -180 -30 -90   XYZ
    dof rx
    limits (-10.0 170.0)
  end
  begin
     id 20
     name lwrist
     direction 1 -4.49103e-011 -2.23668e-026   
     length 1.63864   
     axis 1.44924e-014 90 90   XYZ
    dof ry
    limits (-180.0 0.0)
 end
  begin
     id 21 
     name lhand
     direction 1 3.0697e-005 0.000161777   
     length 0.54443   
     axis 2.85318e-014 90 90   XYZ
    dof rx rz
    limits (-90.0 90.0)
           (-45.0 45.0)
  end
  begin
     id 22 
     name lfingers
     direction 1 -4.49027e-011 -8.9447e-026   
     length 0.438912   
     axis 5.70628e-014 90 90   XYZ
    dof rx
    limits (0.0 90.0)
  end
  begin
     id 23
     name lthumb
     direction 0.707058 2.6516e-005 0.707156   
     length 0.630274   
     axis -90 45 -3.53137e-014   XYZ
    dof rx rz
    limits (-45.0 45.0)
           (-45.0 45.0)
  end
  begin
     id 24 
     name rclavicle
     direction -0.95274 0.284984 -0.105215   
     length 3.43401  
     axis 0 0 0   XYZ 
    dof ry rz
    limits (-10.0 20.0)
           (-20.0 0.0)
  end
  begin
     id 25 
     name rhumerus
     direction -0.999999 -0.000575019 -0.00106829  
     length 5.52077   
     axis -180 30 90   XYZ
    dof rx ry rz
    limits (-90.0 60.0)
           (-90.0 90.0)
           (-90.0 90.0)
  end
  begin
     id 26 
     name rradius
     direction -1 -4.4879e-011 -6.35415e-027   
     length 3.32364   
     axis -180 30 90   XYZ
    dof rx
    limits (-10.0 170.0)
  end
  begin
     id 27 
     name rwrist
     direction -1 -4.49048e-011 -9.98542e-027   
     length 1.66182   
     axis 6.32482e-015 -90 -90   XYZ
    dof ry
    limits (-180.0 0.0)
  end
  begin
     id 28
     name rhand
     direction -1 -4.48978e-011 -1.99771e-026   
     length 0.732235   
     axis 1.27479e-014 -90 -90   XYZ
    dof rx rz
    limits (-90.0 90.0)
           (-45.0 45.0)
  end
  begin
     id 29
     name rfingers
     direction -1 -4.49144e-011 -3.99245e-026   
     length 0.590347   
     axis 2.5496e-014 -90 -90   XYZ
    dof rx
    limits (0.0 90.0)
  end
  begin
     id 30
     name rthumb
     direction -0.707107 -6.35121e-011 0.707107   
     length 0.847624   
     axis -90 -45 -2.82974e-014   XYZ
    dof rx rz
    limits (-45.0 45.0)
           (-45.0 45.0)
  end
:hierarchy
  begin
    root lhipjoint rhipjoint lowerback
    lhipjoint lfemur
    lfemur ltibia
    ltibia lfoot
    lfoot ltoes
    rhipjoint rfemur
    rfemur rtibia
    rtibia rfoot
    rfoot rtoes
    lowerback upperback
    upperback thorax
    thorax lowerneck lclavicle rclavicle
    lowerneck upperneck
    upperneck head
    lclavicle lhumerus
    lhumerus lradius
    lradius lwrist
    lwrist lhand lthumb
    lhand lfingers
    rclavicle rhumerus
    rhumerus rradius
    rradius rwrist
    rwrist rhand rthumb
    rhand rfingers
  end

#!OML:ASF G:\Work\Work\Patient Classification 1\Elijah\terrain1\Elijah.ASF
:FULLY-SPECIFIED
:DEGREES
1
root -5.74892 19.4479 -24.4488 3.04554 -7.22011 2.04332
lowerback -8.54343 -6.87131 20.4167
upperback 6.43295 -11.4635 -9.83772
thorax 5.70455 -4.5358 -24.0038
lowerneck -2.51382 21.4634 11.4892
upperneck 13.5688 30.0278 -11.3087
head 8.02664 14.3552 -2.15331
rclavicle 1.13307e-013 9.54166e-015
rhumerus -24.4706 9.88871 -104.238
rradius 24.8435
rwrist 2.82481
rhand -16.6433 19.4252
rfingers 7.12502
rthumb 9.57955 -10.337
lclavicle 1.13307e-013 9.54166e-015
lhumerus -49.4328 16.8611 52.4089
lradius 30.8591
lwrist 8.0384
lhand -19.4669 33.492
lfingers 7.12502
lthumb 6.85448 63.361
rfemur -27.1865 1.59038 18.7272
rtibia 43.565
rfoot -20.4532 -6.77226
rtoes -14.253
lfemur -18.6892 2.77533 -23.1591
ltibia 74.0825
lfoot 21.3737 -9.83912
ltoes -22.5471
2
root -5.80017 19.4408 -24.3517 3.32519 -6.90293 1.44163
lowerback -8.79634 -6.74766 21.282
upperback 6.34051 -11.469 -9.7176
thorax 5.62022 -4.517 -24.3938
lowerneck -2.13906 21.3681 11.3992
upperneck 13.3214 29.8455 -11.0439
head 7.80476 14.3154 -2.16427
rclavicle 8.5875e-014 -1.59028e-015
rhumerus -24.2283 9.83317 -104.502
rradius 24.7981
rwrist 3.78033
rhand -16.5161 18.7927
rfingers 7.12502
rthumb 9.70223 -10.9638
lclavicle 8.5875e-014 -1.59028e-015
lhumerus -49.7932 16.4374 52.5429
lradius 30.5731
lwrist 8.0728
lhand -17.2152 33.6159
lfingers 7.12502
lthumb 9.02773 63.4027
rfemur -26.8977 1.99015 19.5113
rtibia 43.505
rfoot -20.7875 -7.43048
rtoes -14.3268
lfemur -20.6145 3.50092 -22.4935
ltibia 76.3696
lfoot 19.8721 -10.8551
ltoes -22.0764
3
root -5.84741 19.4569 -24.2439 3.49375 -6.62105 1.20531
lowerback -9.03591 -6.62551 21.8242
upperback 6.24113 -11.4267 -9.71275
thorax 5.57996 -4.48368 -24.7507
lowerneck -1.85822 21.2843 11.382
upperneck 13.2034 29.6967 -10.8257
head 7.66487 14.2786 -2.16952
rclavicle 1.145e-013 7.95139e-014
rhumerus -23.928 10.0484 -104.9
rradius 24.6254
rwrist 4.02279
rhand -16.9286 18.1466
rfingers 7.12502
rthumb 9.30422 -11.6281
lclavicle 1.145e-013 7.95139e-014
lhumerus -50.2172 16.1108 52.5394
lradius 30.3596
lwrist 7.92671
lhand -15.36 33.487
lfingers 7.12502
lthumb 10.8176 63.1885
rfemur -26.3875 1.83479 19.9096
rtibia 43.2518
rfoot -21.0373 -7.45011
rtoes -14.3488
lfemur -22.3487 4.37874 -22.2772
ltibia 78.2788
lfoot 17.2109 -11.9649
ltoes -24.8778
4
root -5.90013 19.4733 -24.1443 3.42297 -6.24631 1.18246
lowerback -9.00791 -6.61507 22.0143
upperback 6.21264 -11.4314 -9.77634
thorax 5.48385 -4.49635 -24.9391
lowerneck -1.68021 21.2354 11.2862
upperneck 13.1517 29.5859 -10.5193
head 7.5425 14.254 -2.12385
rclavicle 8.90555e-014 3.18055e-015
rhumerus -23.8231 10.3942 -105.339
rradius 24.7066
rwrist 4.00768
rhand -17.119 18.5284
rfingers 7.12502
rthumb 9.1205 -11.2544
lclavicle 8.90555e-014 3.18055e-015
lhumerus -50.4367 15.8386 52.5027
lradius 29.9386
lwrist 7.40422
lhand -13.9569 32.8713
lfingers 7.12502
lthumb 12.1706 62.4973
rfemur -25.6818 1.8468 20.0934
rtibia 43.0805
rfoot -21.3492 -7.62376
rtoes -13.5932
lfemur -23.9381 5.19046 -22.2903
ltibia 80.1036
lfoot 17.6434 -13.4338
ltoes -25.407
5
root -5.95718 19.4812 -24.0594 3.40201 -5.83394 1.12278
lowerback -8.94094 -6.65404 22.0936
upperback 6.20744 -11.4813 -9.77039
thorax 5.39853 -4.53404 -24.955
lowerneck -1.69653 21.2206 11.0098
upperneck 13.1693 29.5094 -10.1165
head 7.43686 14.2331 -2.00762
rclavicle -7.55382e-014 2.54444e-014
rhumerus -23.805 10.9768 -105.731
rradius 25.0957
rwrist 3.7648
rhand -15.9685 20.2302
rfingers 7.12502
rthumb 10.2306 -9.50103
lclavicle -7.55382e-014 2.54444e-014
lhumerus -50.6332 15.746 52.5371
lradius 29.6665
lwrist 6.64041
lhand -12.6136 32.1419
lfingers 7.12502
lthumb 13.4656 61.6867
rfemur -25.0947 2.01693 20.3439
rtibia 42.9267
rfoot -21.6662 -8.01665
rtoes -12.7989
lfemur -25.5594 5.96897 -22.2647
ltibia 81.7729
lfoot 15.7314 -13.704
ltoes -25.002
6
root -6.00407 19.4893 -23.9646 3.59158 -5.42828 1.21931
lowerback -9.19669 -6.60026 22.1689
upperback 6.18262 -11.4718 -9.83033
thorax 5.49856 -4.5094 -25.1388
lowerneck -1.89417 21.1631 10.9145
upperneck 13.3296 29.3825 -9.78397
head 7.44084 14.1762 -1.90302
rclavicle 6.83819e-014 2.22639e-014
rhumerus -23.5508 11.1955 -106.073
rradius 25.5336
rwrist 4.37594
rhand -16.7943 19.9454
rfingers 7.12502
rthumb 9.43381 -9.82343
lclavicle 6.83819e-014 2.22639e-014
lhumerus -50.9473 15.7172 52.4722
lradius 29.7759
lwrist 5.92562
lhand -11.3448 31.5999
lfingers 7.12502
lthumb 14.6883 61.0596
rfemur -24.7662 1.81704 20.3787
rtibia 42.8069
rfoot -21.9984 -8.15451
rtoes -12.6914
lfemur -27.213 6.69976 -22.5543
ltibia 83.1954
lfoot 14.7917 -14.0243
ltoes -23.1513
7
root -6.0464 19.5044 -23.8629 3.80495 -5.16496 1.44892
lowerback -9.42025 -6.48438 22.187
upperback 6.07726 -11.3539 -9.9633
thorax 5.54817 -4.44816 -25.3833
lowerneck -1.96502 21.0154 11.097
upperneck 13.5245 29.1598 -9.62442
head 7.49473 14.0772 -1.89257
rclavicle 3.97569e-015 -2.8625e-014
rhumerus -23.2048 10.6639 -106.268
rradius 25.8838
rwrist 6.61577
rhand -18.2631 20.002
rfingers 7.12502
rthumb 8.01643 -9.82595
lclavicle 3.97569e-015 -2.8625e-014
lhumerus -51.3011 15.722 52.2317
lradius 29.9246
lwrist 5.20882
lhand -10.2288 31.2652
lfingers 7.12502
lthumb 15.7633 60.6433
rfemur -24.4973 1.67963 20.2419
rtibia 42.6921
rfoot -22.2178 -8.27532
rtoes -12.7128
lfemur -28.8768 7.5379 -23.1044
ltibia 84.4117
lfoot 14.9353 -14.2506
ltoes -21.4925
8
root -6.09218 19.5254 -23.7679 3.92331 -5.00227 1.59015
lowerback -9.42064 -6.39497 22.2057
upperback 5.94579 -11.2222 -10.0516
thorax 5.45759 -4.40813 -25.512
lowerneck -1.99884 20.929 11.2061
upperneck 13.7845 29.0294 -9.43186
head 7.55796 14.0209 -1.8541
rclavicle -4.13472e-014 -9.54166e-015
rhumerus -23.3132 11.82 -107.085
rradius 25.9198
rwrist 3.35488
rhand -16.9803 18.9647
rfingers 7.12502
rthumb 9.25433 -10.8122
lclavicle -4.13472e-014 -9.54166e-015
lhumerus -51.5979 15.8295 51.999
lradius 29.9589
lwrist 4.38173
lhand -9.32171 30.8389
lfingers 7.12502
lthumb 16.6367 60.1459
rfemur -24.1076 1.83935 20.2304
rtibia 42.4668
rfoot -22.213 -8.45538
rtoes -12.1205
lfemur -30.4185 8.55961 -23.537
ltibia 85.4874
lfoot 13.6488 -14.4641
ltoes -20.6626
9
root -6.13586 19.5346 -23.6771 4.00676 -4.80614 1.4045
lowerback -9.35954 -6.33189 22.5498
upperback 5.81823 -11.1659 -10.0202
thorax 5.26193 -4.41083 -25.6458
lowerneck -2.00185 20.9131 11.1323
upperneck 14.1117 29.0108 -9.21147
head 7.6194 14.0111 -1.77622
rclavicle -5.60573e-014 1.43125e-014
rhumerus -23.3932 11.8594 -107.246
rradius 26.6539
rwrist 4.8122
rhand -18.1213 19.2976
rfingers 7.12502
rthumb 8.15331 -10.5251
lclavicle -5.60573e-014 1.43125e-014
lhumerus -52.0532 16.0476 51.8323
lradius 30.0876
lwrist 3.6444
lhand -8.58357 30.3148
lfingers 7.12502
lthumb 17.3473 59.5606
rfemur -23.6567 2.01031 20.5874
rtibia 42.2114
rfoot -22.2561 -8.69588
rtoes -11.8812
lfemur -31.6602 9.55629 -23.5624
ltibia 86.6036
lfoot 12.4386 -14.6363
ltoes -18.1078
10
root -6.17647 19.5586 -23.5777 4.10133 -4.64414 1.02283
lowerback -9.26462 -6.25666 23.1158
upperback 5.61793 -11.1134 -9.91558
thorax 4.94241 -4.43649 -25.7891
lowerneck -1.8809 20.872 10.9293
upperneck 14.4277 28.9607 -8.92595
head 7.62517 13.9919 -1.69069
rclavicle 2.70347e-014 5.40694e-014
rhumerus -24.0814 12.5536 -107.634
rradius 27.6822
rwrist 4.65432
rhand -18.4779 18.8509
rfingers 7.12502
rthumb 7.80906 -10.9849
lclavicle 2.70347e-014 5.40694e-014
lhumerus -52.8489 16.1342 51.7786
lradius 30.5371
lwrist 3.28141
lhand -7.98738 30.3667
lfingers 7.12502
lthumb 17.921 59.561
rfemur -23.0576 2.23459 21.1428
rtibia 41.8298
rfoot -22.469 -8.95338
rtoes -11.9011
lfemur -33.5119 10.5635 -23.5761
ltibia 87.5719
lfoot 11.4982 -13.988
ltoes -18.1312
11
root -6.21421 19.5738 -23.48 4.13064 -4.47909 0.936968
lowerback -9.13294 -6.18504 23.4387
upperback 5.40809 -11.016 -9.93664
thorax 4.63408 -4.45061 -25.9619
lowerneck -1.70943 20.806 10.8358
upperneck 14.721 28.8745 -8.6637
head 7.63153 13.9613 -1.63216
rclavicle -1.00585e-013 1.27222e-014
rhumerus -24.2441 13.4333 -108.206
rradius 28.1912
rwrist 3.4679
rhand -18.2635 17.9926
rfingers 7.12502
rthumb 8.01603 -11.8354
lclavicle -1.00585e-013 1.27222e-014
lhumerus -53.6833 16.0273 51.7541
lradius 31.0704
lwrist 3.0143
lhand -7.86857 30.6449
lfingers 7.12502
lthumb 18.0353 59.8287
rfemur -22.4319 2.29613 21.3681
rtibia 41.5158
rfoot -22.8011 -9.00183
rtoes -11.1582
lfemur -34.8215 11.3051 -23.8486
ltibia 88.4706
lfoot 10.1377 -13.3344
ltoes -15.1751
